<svg xmlns="http://www.w3.org/2000/svg" viewBox="0 0 500 500"><g id="freepik--background-complete--inject-61"><path d="M448.47,299.55s-9-3-13.32,17.82-5,32.27-5,32.27-1.41,4.49-4.72,2.71-8.84-7.89-13-5.39-4.38,8.17-1.42,15.52,8.84,23.69,9.37,25.17.26,3.87-2.19,3-17.91-10.82-22.2-3.2,7.31,26.75,8.53,28.86,1,3.21.12,4.07-5.81-3-10.32-5.63-10.22-4.94-12.32-.34,1.14,20.44,22.85,41.68l10.71,9.18,13.44-4.49c28.17-11.34,37.21-24.75,37-29.81s-6.33-5.12-11.52-4.38-11.16,2.42-11.69,1.27-.28-2.23,1.66-3.72,19.95-14.74,18.89-23.42-19.15-5.37-21.74-5.51-1.9-2.48-.87-3.62,12.72-14,18.26-19.7,7.56-10.87,4.6-14.89-10.29-.34-14,.05-3.33-4.31-3.33-4.31S450.11,341.89,454,321s-5.75-21.53-5.75-21.53" style="fill:#ebebeb"></path><path d="M415.56,462.31c2.95-15.31,7.2-36.42,12-59.73s9.08-44.39,12.11-59.68l3.58-18.11c.42-2.12.75-3.78,1-4.92.12-.55.21-1,.27-1.28a3.59,3.59,0,0,1,.11-.43s0,.15-.06.44-.13.74-.22,1.28c-.21,1.16-.51,2.82-.89,4.94-.78,4.29-2,10.49-3.42,18.15-2.95,15.3-7.2,36.41-12,59.71s-9.08,44.41-12.11,59.7" style="fill:#e0e0e0"></path><path d="M419.91,355.81a4.07,4.07,0,0,1,.6.83c.37.54.87,1.35,1.48,2.35,1.21,2,2.81,4.82,4.52,7.95l4.35,8.06,1.32,2.43a3.75,3.75,0,0,1,.45.92,4.77,4.77,0,0,1-.61-.83c-.36-.54-.86-1.35-1.46-2.36-1.2-2-2.76-4.85-4.47-8l-4.4-8c-.53-1-1-1.76-1.34-2.43A3.9,3.9,0,0,1,419.91,355.81Z" style="fill:#e0e0e0"></path><path d="M434,378.25c-.07-.12,5.58-3.68,12.62-8s12.8-7.66,12.87-7.54-5.58,3.67-12.62,8S434,378.36,434,378.25Z" style="fill:#e0e0e0"></path><path d="M425,413.7a4.45,4.45,0,0,1,1-.33l2.73-.74c2.3-.63,5.48-1.51,9-2.6s6.59-2.18,8.84-3l2.66-1a4.77,4.77,0,0,1,1-.3,4,4,0,0,1-.93.47c-.61.28-1.5.66-2.61,1.1-2.22.89-5.33,2-8.82,3.13s-6.69,1.92-9,2.47c-1.16.27-2.11.47-2.77.59A4.32,4.32,0,0,1,425,413.7Z" style="fill:#e0e0e0"></path><path d="M407.84,396.2a4.1,4.1,0,0,1,.74.61c.46.42,1.12,1,1.91,1.79,1.6,1.53,3.79,3.66,6.18,6s4.53,4.54,6.07,6.13c.77.79,1.38,1.44,1.8,1.9s.64.72.61.74a4,4,0,0,1-.74-.61c-.46-.41-1.11-1-1.91-1.79-1.6-1.52-3.78-3.66-6.17-6s-4.54-4.55-6.08-6.14l-1.8-1.89C408,396.49,407.81,396.23,407.84,396.2Z" style="fill:#e0e0e0"></path><path d="M396,426.5a5.43,5.43,0,0,1,1,.79l2.45,2.29c2.06,1.94,4.88,4.65,8,7.67s5.88,5.76,7.88,7.77l2.34,2.4a6.55,6.55,0,0,1,.82.92,5.92,5.92,0,0,1-.95-.79L415,445.27c-2.06-1.95-4.88-4.66-8-7.68s-5.88-5.76-7.87-7.77l-2.35-2.4A6.55,6.55,0,0,1,396,426.5Z" style="fill:#e0e0e0"></path><path d="M418,447.67a7,7,0,0,1,1.24-.45l3.43-1.06c2.9-.9,6.89-2.16,11.26-3.67s8.3-3,11.13-4l3.36-1.27a7.65,7.65,0,0,1,1.25-.41,6.2,6.2,0,0,1-1.18.59c-.77.35-1.9.83-3.3,1.41-2.81,1.16-6.72,2.67-11.1,4.18s-8.4,2.72-11.32,3.54c-1.46.4-2.65.72-3.48.91A6.49,6.49,0,0,1,418,447.67Z" style="fill:#e0e0e0"></path><path d="M215.07,125l-37.42-17.86a5.19,5.19,0,0,1-2.44-6.92l24.72-51.79A5.19,5.19,0,0,1,206.85,46l23.73,11.32L239.91,85,222,122.58A5.19,5.19,0,0,1,215.07,125Z" style="fill:#ebebeb"></path><path d="M230.58,57.33l-7,14.58a4.82,4.82,0,0,0,2.28,6.43l14,6.7Z" style="fill:#f5f5f5"></path><path d="M223.2,73.28a5.37,5.37,0,0,0,1.6,6.53c.13.12.27.22.41.33,1.68,1.2,12.7,9.09,12.83,8.81L239.91,85l-14-6.69S222.45,76.56,223.2,73.28Z" style="fill:#e0e0e0"></path><path d="M220.77,69.82c-.09.18-4-1.51-8.82-3.8s-8.58-4.28-8.49-4.47,4,1.51,8.82,3.8S220.86,69.63,220.77,69.82Z" style="fill:#fafafa"></path><path d="M228,83.4c-.09.18-6.54-2.71-14.4-6.47s-14.18-7-14.09-7.14,6.54,2.71,14.41,6.47S228.1,83.21,228,83.4Z" style="fill:#fafafa"></path><path d="M227.29,91.5c-.08.19-7.11-3-15.69-7.07s-15.45-7.57-15.36-7.75,7.11,3,15.69,7.07S227.38,91.32,227.29,91.5Z" style="fill:#fafafa"></path><path d="M224.2,98c-.09.18-7.12-3-15.69-7.08s-15.46-7.56-15.37-7.75,7.11,3,15.69,7.07S224.28,97.81,224.2,98Z" style="fill:#fafafa"></path><path d="M221.1,104.49c-.09.19-7.12-3-15.69-7.08S190,89.85,190,89.66s7.11,3,15.69,7.08S221.18,104.3,221.1,104.49Z" style="fill:#fafafa"></path><path d="M218,111c-.09.19-7.12-3-15.69-7.07s-15.46-7.57-15.37-7.75,7.11,3,15.69,7.07S218.09,110.79,218,111Z" style="fill:#fafafa"></path><path d="M425.23,387.39H349.76s-.89-17.76,14.79-18.95c0,0,2.61-15,20.13-15.09,21-.1,21.27,18.2,21.27,18.2s17.21-1.63,19.28,15.84" style="fill:#fafafa"></path><polygon points="66.43 360.63 66.43 360.63 66.43 360.63 66.43 360.63 51.93 373.77 60.69 373.77 60.69 392.37 66.1 392.37 66.76 392.37 72.18 392.37 72.18 373.77 80.94 373.77 66.43 360.63" style="fill:#ebebeb"></polygon><polygon points="440.17 106.13 440.17 106.13 440.17 106.13 440.17 106.13 422.44 122.2 433.15 122.2 433.15 144.93 439.77 144.93 440.58 144.93 447.2 144.93 447.2 122.2 457.9 122.2 440.17 106.13" style="fill:#ebebeb"></polygon><rect x="54.16" y="103.69" width="53.56" height="66.99" transform="translate(-70.61 186.23) rotate(-77.39)" style="fill:#ebebeb"></rect><rect x="57.48" y="106.04" width="46.82" height="62.29" transform="translate(-70.64 186.18) rotate(-77.39)" style="fill:#f5f5f5"></rect><polygon points="45.39 153.23 72.97 129.58 82.15 150.28 93.19 142.78 106.18 166.82 45.39 153.23" style="fill:#e0e0e0"></polygon><path d="M92.49,130.29a4.91,4.91,0,1,1-3.72-5.86A4.91,4.91,0,0,1,92.49,130.29Z" style="fill:#e0e0e0"></path></g><g id="freepik--Floor--inject-61"><path d="M483.79,464.92c0,.15-104.68.26-233.78.26s-233.8-.11-233.8-.26,104.66-.26,233.8-.26S483.79,464.78,483.79,464.92Z" style="fill:#263238"></path></g><g id="freepik--Files--inject-61"><rect x="288.03" y="42.74" width="63.96" height="80" transform="translate(182.82 383.46) rotate(-79.98)" style="fill:#ebebeb"></rect><path d="M365,58.22l-.39-.06L363.47,58l-4.28-.74-16.14-2.79-56.9-10,.24-.16c-3.31,18.74-7.1,40.24-11.11,63h0l-.19-.26,78.78,14-.23.16c3.4-19,6.21-34.68,8.18-45.67,1-5.49,1.77-9.8,2.3-12.75l.62-3.37c.14-.76.23-1.16.23-1.16l-.18,1.13c-.13.76-.32,1.88-.57,3.33-.51,2.95-1.25,7.25-2.2,12.74-1.92,11-4.68,26.79-8,45.81l0,.19-.19,0L275,107.5l-.23,0,0-.23h0c4-22.74,7.84-44.23,11.16-63l0-.2.2,0,57,10.18,16.07,2.89,4.24.78,1.08.2Z" style="fill:#263238"></path><rect x="292" y="45.54" width="55.91" height="74.38" transform="translate(182.79 383.41) rotate(-79.98)" style="fill:#0F172A"></rect><polygon points="278.47 103.79 310.1 74.09 322.16 98.3 334.94 88.76 351.71 116.74 278.47 103.79" style="fill:#0F172A"></polygon><path d="M333.42,73.89a5.86,5.86,0,1,1-4.75-6.79A5.87,5.87,0,0,1,333.42,73.89Z" style="fill:#0F172A"></path><g style="opacity:0.2"><polygon points="278.47 103.79 310.1 74.09 322.16 98.3 334.94 88.76 351.71 116.74 278.47 103.79"></polygon></g><g style="opacity:0.2"><path d="M333.42,73.89a5.86,5.86,0,1,1-4.75-6.79A5.87,5.87,0,0,1,333.42,73.89Z"></path></g><path d="M430.47,272.14l-45.54-13.37a5.94,5.94,0,0,1-4-7.37l18.5-63a6,6,0,0,1,7.38-4l28.88,8.48,15.59,29.6-13.41,45.69A5.94,5.94,0,0,1,430.47,272.14Z" style="fill:#0F172A"></path><path d="M427.92,238.47s.38.1,1.12.16a5.63,5.63,0,0,0,3.09-.74,5.53,5.53,0,0,0,1.69-1.54,5,5,0,0,0,.63-1.16c.16-.42.29-.9.42-1.38l1.9-6.57,1.1-3.82c.19-.67.39-1.35.59-2a9.51,9.51,0,0,0,.45-2.09,6.09,6.09,0,0,0-1.3-4.17,5.93,5.93,0,0,0-1.76-1.5,9.42,9.42,0,0,0-2.27-.84l-20.91-6.09a5.87,5.87,0,0,0-5.08,1.47,5.61,5.61,0,0,0-1.47,2.22c-.3.84-.53,1.76-.8,2.62-1,3.5-2,6.87-3,10.09-.23.8-.52,1.61-.67,2.36a5.56,5.56,0,0,0,.08,2.3,5.48,5.48,0,0,0,2.62,3.44,8.66,8.66,0,0,0,2,.75l2,.61,3.81,1.13,11.5,3.46,3.11,1,.81.27.27.1-.28-.05-.82-.22-3.15-.87L412.13,234l-3.82-1.1-2-.59a9.7,9.7,0,0,1-2.1-.77,5.91,5.91,0,0,1-2.84-3.7,5.8,5.8,0,0,1-.1-2.49c.17-.84.44-1.59.66-2.41l3-10.1c.27-.88.49-1.74.8-2.65a6.11,6.11,0,0,1,1.6-2.41,6.34,6.34,0,0,1,5.52-1.6c7.48,2.13,14.5,4.24,20.94,6.13a10.77,10.77,0,0,1,2.37.89,6.71,6.71,0,0,1,1.88,1.63,6.54,6.54,0,0,1,1.37,4.46,9.58,9.58,0,0,1-.49,2.19c-.2.68-.4,1.36-.6,2-.39,1.33-.77,2.6-1.13,3.82l-2,6.55c-.14.48-.27,1-.45,1.4a5.56,5.56,0,0,1-.67,1.2,5.66,5.66,0,0,1-1.79,1.57,5.51,5.51,0,0,1-3.19.67A4.11,4.11,0,0,1,427.92,238.47Z" style="fill:#fafafa"></path><path d="M433.91,237s-.1-.14-.23-.44-.34-.77-.57-1.29l-2-4.79c-.42-1-.87-2.13-1.35-3.32-.25-.59-.5-1.21-.75-1.84l-.39-1a1.75,1.75,0,0,0-.61-.71,1.68,1.68,0,0,0-1.84,0L424.31,225l-4,2.85-1.78,1.27-.22.16-.14-.24L416,225.13l-.53-.94a2.66,2.66,0,0,0-.56-.79,1.78,1.78,0,0,0-1.69-.39,3.85,3.85,0,0,0-.82.4l-.83.47-1.58.89-2.83,1.59-4.09,2.26-1.12.59a2.29,2.29,0,0,1-.4.18s.11-.11.35-.26.65-.41,1.08-.67l4-2.39,2.8-1.64,1.57-.92.82-.48a3.94,3.94,0,0,1,.92-.45,2.24,2.24,0,0,1,2.12.47,3.11,3.11,0,0,1,.66.9l.53.94c.72,1.26,1.47,2.56,2.23,3.9l-.36-.08,1.78-1.27,4-2.84,1.9-1.35a2.13,2.13,0,0,1,3.12.91l.39,1,.72,1.86,1.3,3.34c.76,2,1.38,3.63,1.84,4.85.2.53.35,1,.48,1.33A1.93,1.93,0,0,1,433.91,237Z" style="fill:#fafafa"></path><path d="M419.75,219.48s.28,0,.76,0a3.07,3.07,0,0,0,1.84-.65,2.88,2.88,0,1,0-4.44-1.3,3.1,3.1,0,0,0,1.2,1.54c.4.26.66.34.64.39a1.52,1.52,0,0,1-.74-.22,3.12,3.12,0,0,1-1.43-1.58,3.25,3.25,0,0,1,.37-3.13,3.31,3.31,0,0,1,6,1.76,3.26,3.26,0,0,1-1.38,2.83,3,3,0,0,1-2.06.55A1.52,1.52,0,0,1,419.75,219.48Z" style="fill:#fafafa"></path><g style="opacity:0.2"><path d="M381.35,242.39h59.34a0,0,0,0,1,0,0v17.18a6.36,6.36,0,0,1-6.36,6.36H387.7a6.36,6.36,0,0,1-6.36-6.36V242.39A0,0,0,0,1,381.35,242.39Z" transform="translate(88.21 -105.46) rotate(16.36)"></path></g><path d="M435.66,192.82l-5.21,17.74a5.52,5.52,0,0,0,3.75,6.85l17.05,5Z" style="fill:#0F172A"></path><g style="opacity:0.2"><path d="M430.23,212.18s-1.49,4.24,3,7.09a5.45,5.45,0,0,0,.53.29c2.11,1.05,16,8,16.1,7.63l1.4-4.77-17.06-5S430,216,430.23,212.18Z"></path></g><path d="M406.16,251.85l1.87.55L407,256a6.43,6.43,0,0,1-3.91.07,4.78,4.78,0,1,1,2.73-9.15,4.94,4.94,0,0,1,3.26,2.62l-1.68.83a3.09,3.09,0,0,0-2-1.67,3,3,0,1,0-1.69,5.66,3.48,3.48,0,0,0,1.7.09Z" style="fill:#fafafa"></path><path d="M411.18,248.67l2.05.6-2.6,8.86-2.05-.6Z" style="fill:#fafafa"></path><path d="M416.89,252.13l-.68,2.34,4.1,1.21-.49,1.64-4.1-1.2-.94,3.22-2-.6,2.6-8.85,6.69,2-.48,1.65Z" style="fill:#fafafa"></path><path d="M132.89,260.44,91.68,269.9a5.28,5.28,0,0,1-6.34-4l-13.09-57a5.28,5.28,0,0,1,4-6.34l26.14-6,25,16.21,9.49,41.34A5.28,5.28,0,0,1,132.89,260.44Z" style="fill:#0F172A"></path><path d="M102.36,196.55l3.68,16a4.92,4.92,0,0,0,5.9,3.7l15.43-3.54Z" style="fill:#0F172A"></path><g style="opacity:0.2"><path d="M106.57,214a5.49,5.49,0,0,0,5.42,4.21,4.87,4.87,0,0,0,.54,0c2.09-.1,15.9-.78,15.83-1.09l-1-4.31-15.43,3.54S108.05,217.05,106.57,214Z"></path></g><g style="opacity:0.30000000000000004"><path d="M102.36,196.55l3.68,16a4.92,4.92,0,0,0,5.9,3.7l15.43-3.54Z" style="fill:#fff"></path></g><path d="M102.43,212.74c0,.21-4.18,1.36-9.44,2.56s-9.57,2-9.62,1.82,4.18-1.35,9.45-2.56S102.39,212.54,102.43,212.74Z" style="fill:#fafafa"></path><path d="M116.83,219c0,.21-6.94,2-15.6,4S85.5,226.4,85.45,226.2s6.94-2,15.61-4S116.78,218.79,116.83,219Z" style="fill:#fafafa"></path><path d="M121.4,225.92c0,.21-7.57,2.13-17,4.3S87.24,234,87.19,233.77s7.57-2.13,17-4.29S121.35,225.72,121.4,225.92Z" style="fill:#fafafa"></path><path d="M123,233.07c0,.21-7.57,2.14-17,4.3s-17.14,3.76-17.19,3.56,7.57-2.14,17-4.3S123,232.87,123,233.07Z" style="fill:#fafafa"></path><path d="M124.68,240.22c0,.21-7.57,2.14-17,4.3s-17.14,3.76-17.18,3.56,7.57-2.13,17-4.3S124.63,240,124.68,240.22Z" style="fill:#fafafa"></path><path d="M126.32,247.38c.05.2-7.57,2.13-17,4.29s-17.15,3.76-17.19,3.56,7.57-2.13,17-4.3S126.27,247.17,126.32,247.38Z" style="fill:#fafafa"></path></g><g id="freepik--Screen--inject-61"><rect x="131.32" y="102.19" width="272.62" height="240.08" style="fill:#f5f5f5"></rect><path d="M403.94,342.27c0-1.85-.09-95.6-.22-240.08l.22.22-272.59,0h0l.26-.26c0,87.26,0,169.43,0,240.08l-.23-.22,272.62.22-272.62.23h-.23v-.23c0-70.65,0-152.82,0-240.08v-.26h.29l272.59,0h.22v.22C404,246.67,403.94,340.42,403.94,342.27Z" style="fill:#263238"></path><path d="M174.86,193.21H159.4a1.93,1.93,0,0,1-1.94-1.93V169.87a1.94,1.94,0,0,1,1.94-1.94h9.8l7.6,7.83v15.52A1.93,1.93,0,0,1,174.86,193.21Z" style="fill:#0F172A"></path><path d="M169.2,167.93v6a1.81,1.81,0,0,0,1.8,1.8h5.8Z" style="fill:#0F172A"></path><g style="opacity:0.2"><path d="M169.28,174.49a2,2,0,0,0,1.59,1.94l.19,0c.76.14,5.74,1,5.74.91v-1.62H171S169.56,175.71,169.28,174.49Z"></path></g><g style="opacity:0.30000000000000004"><path d="M169.2,167.93v6a1.81,1.81,0,0,0,1.8,1.8h5.8Z" style="fill:#fff"></path></g><path d="M167.91,173.71a22.59,22.59,0,0,1-3.58.14,22.59,22.59,0,0,1-3.58-.14,24.11,24.11,0,0,1,3.58-.14A24.11,24.11,0,0,1,167.91,173.71Z" style="fill:#fafafa"></path><path d="M172.53,177.12c0,.08-2.64.14-5.89.14s-5.89-.06-5.89-.14,2.64-.14,5.89-.14S172.53,177,172.53,177.12Z" style="fill:#fafafa"></path><path d="M173.59,180c0,.08-2.87.14-6.42.14s-6.42-.06-6.42-.14,2.88-.14,6.42-.14S173.59,179.89,173.59,180Z" style="fill:#fafafa"></path><path d="M173.59,182.65c0,.08-2.87.14-6.42.14s-6.42-.06-6.42-.14,2.88-.14,6.42-.14S173.59,182.57,173.59,182.65Z" style="fill:#fafafa"></path><path d="M173.59,185.33c0,.08-2.87.14-6.42.14s-6.42-.06-6.42-.14,2.88-.14,6.42-.14S173.59,185.26,173.59,185.33Z" style="fill:#fafafa"></path><path d="M173.59,188c0,.07-2.87.14-6.42.14s-6.42-.07-6.42-.14,2.88-.14,6.42-.14S173.59,187.94,173.59,188Z" style="fill:#fafafa"></path><path d="M189.94,170.62a1.58,1.58,0,0,1,.87.22l-.27.71a1,1,0,0,0-.53-.16c-.39,0-.6.22-.6.65v.25h1.12v.76h-1.09v3.28h-.95v-3.28h-.67v-.76h.67V172A1.31,1.31,0,0,1,189.94,170.62Zm1.71.39a.58.58,0,0,1,.61-.57.57.57,0,0,1,.61.55.61.61,0,0,1-1.22,0Zm.13,1.25h1v4.07h-1Z" style="fill:#263238"></path><path d="M194,170.67h1v5.66h-1Z" style="fill:#263238"></path><path d="M200,174.6h-3.19a1.24,1.24,0,0,0,1.32,1,1.45,1.45,0,0,0,1.1-.45l.51.59a2,2,0,0,1-1.64.66,2.07,2.07,0,0,1-2.25-2.09,2,2,0,0,1,2.11-2.08,2,2,0,0,1,2.06,2.11C200,174.39,200,174.51,200,174.6Zm-3.2-.63h2.31a1.17,1.17,0,0,0-2.31,0Z" style="fill:#263238"></path><path d="M205,174v2.33h-1v-2.21c0-.73-.36-1.08-1-1.08a1.08,1.08,0,0,0-1.14,1.23v2.06h-1v-4.07h.91v.52a1.76,1.76,0,0,1,1.4-.57A1.59,1.59,0,0,1,205,174Z" style="fill:#263238"></path><path d="M209.59,173.94v2.39h-.9v-.5a1.42,1.42,0,0,1-1.28.55c-.94,0-1.52-.51-1.52-1.22s.45-1.21,1.69-1.21h1v-.06c0-.56-.33-.89-1-.89a2,2,0,0,0-1.24.41l-.37-.7a2.89,2.89,0,0,1,1.72-.5C208.91,172.21,209.59,172.77,209.59,173.94Zm-1,1.12v-.48h-1c-.65,0-.82.25-.82.55s.29.56.77.56A1,1,0,0,0,208.63,175.06Z" style="fill:#263238"></path><path d="M217.62,174v2.33h-1v-2.21c0-.73-.33-1.08-.91-1.08s-1.07.41-1.07,1.22v2.07h-.95v-2.21c0-.73-.33-1.08-.91-1.08s-1.07.41-1.07,1.22v2.07h-.95v-4.07h.91v.52a1.67,1.67,0,0,1,1.33-.57,1.53,1.53,0,0,1,1.38.68,1.89,1.89,0,0,1,1.52-.68A1.57,1.57,0,0,1,217.62,174Z" style="fill:#263238"></path><path d="M222.7,174.6h-3.19a1.24,1.24,0,0,0,1.32,1,1.45,1.45,0,0,0,1.1-.45l.52.59a2.3,2.3,0,0,1-3.9-1.43,2,2,0,0,1,2.11-2.08,2,2,0,0,1,2.06,2.11C222.72,174.39,222.71,174.51,222.7,174.6Zm-3.2-.63h2.31a1.11,1.11,0,0,0-1.15-1A1.13,1.13,0,0,0,219.5,174Z" style="fill:#263238"></path><path d="M223.32,175.75a.63.63,0,1,1,1.25,0,.63.63,0,1,1-1.25,0Z" style="fill:#263238"></path><path d="M229.42,170.67v5.66h-.92v-.53a1.67,1.67,0,0,1-1.35.58,2.09,2.09,0,0,1,0-4.17,1.67,1.67,0,0,1,1.31.55v-2.09Zm-.94,3.62a1.22,1.22,0,1,0-1.22,1.28A1.2,1.2,0,0,0,228.48,174.29Z" style="fill:#263238"></path><path d="M230.33,174.29a2.18,2.18,0,1,1,2.17,2.09A2.05,2.05,0,0,1,230.33,174.29Zm3.38,0a1.21,1.21,0,1,0-1.21,1.28A1.18,1.18,0,0,0,233.71,174.29Z" style="fill:#263238"></path><path d="M235.26,174.29a2.06,2.06,0,0,1,2.2-2.08,1.82,1.82,0,0,1,1.74.95l-.73.42a1.14,1.14,0,0,0-1-.56,1.28,1.28,0,0,0,0,2.55,1.15,1.15,0,0,0,1-.57l.73.43a1.84,1.84,0,0,1-1.74.95A2.07,2.07,0,0,1,235.26,174.29Z" style="fill:#263238"></path><path d="M188,182.62a2.05,2.05,0,0,1,2.14-2.08,2,2,0,0,1,1.5.6l-.28.27a1.6,1.6,0,0,0-1.2-.48,1.69,1.69,0,1,0,0,3.38,1.61,1.61,0,0,0,1.2-.49l.28.27a2,2,0,0,1-1.5.6A2,2,0,0,1,188,182.62Z" style="fill:#e0e0e0"></path><path d="M192.05,183.13a1.56,1.56,0,1,1,1.56,1.56A1.51,1.51,0,0,1,192.05,183.13Zm2.7,0a1.14,1.14,0,1,0-1.14,1.19A1.12,1.12,0,0,0,194.75,183.13Z" style="fill:#e0e0e0"></path><path d="M201.07,182.88v1.78h-.41v-1.74c0-.64-.33-1-.88-1a1,1,0,0,0-1,1.11v1.61h-.41v-1.74c0-.64-.33-1-.89-1a1,1,0,0,0-1,1.11v1.61H196v-3.07h.4v.56a1.24,1.24,0,0,1,1.12-.58,1.1,1.1,0,0,1,1.09.65,1.33,1.33,0,0,1,1.22-.65A1.15,1.15,0,0,1,201.07,182.88Z" style="fill:#e0e0e0"></path><path d="M205.3,183.13a1.49,1.49,0,0,1-1.53,1.56,1.35,1.35,0,0,1-1.17-.61v1.71h-.41v-4.2h.4v.61a1.32,1.32,0,0,1,1.18-.63A1.49,1.49,0,0,1,205.3,183.13Zm-.42,0a1.14,1.14,0,1,0-1.14,1.19A1.12,1.12,0,0,0,204.88,183.13Z" style="fill:#e0e0e0"></path><path d="M206.14,180.33h.41v4.33h-.41Z" style="fill:#e0e0e0"></path><path d="M210.37,183.25h-2.56a1.12,1.12,0,0,0,1.2,1.07,1.19,1.19,0,0,0,.94-.4l.24.27a1.54,1.54,0,0,1-1.19.5,1.52,1.52,0,0,1-1.61-1.56,1.48,1.48,0,0,1,1.5-1.56,1.46,1.46,0,0,1,1.49,1.56S210.37,183.21,210.37,183.25Zm-2.56-.3H210a1.09,1.09,0,0,0-2.17,0Z" style="fill:#e0e0e0"></path><path d="M212.83,184.47a.94.94,0,0,1-.64.22.81.81,0,0,1-.9-.89v-1.86h-.55v-.35h.55v-.67h.41v.67h.94v.35h-.94v1.83a.49.49,0,0,0,.53.56.73.73,0,0,0,.46-.15Z" style="fill:#e0e0e0"></path><path d="M216.14,183.25h-2.56a1.12,1.12,0,0,0,1.2,1.07,1.19,1.19,0,0,0,.94-.4l.24.27a1.54,1.54,0,0,1-1.19.5,1.52,1.52,0,0,1-1.61-1.56,1.48,1.48,0,0,1,1.5-1.56,1.46,1.46,0,0,1,1.49,1.56S216.14,183.21,216.14,183.25Zm-2.56-.3h2.17a1.09,1.09,0,0,0-2.17,0Z" style="fill:#e0e0e0"></path><rect x="186.25" y="187.99" width="181.21" height="3.32" rx="1.66" style="fill:#0F172A"></rect><path d="M376.67,186.68a13.43,13.43,0,0,1-2.42,2.78,13.26,13.26,0,0,1-2.78,2.41,13.55,13.55,0,0,1,2.41-2.78A13.17,13.17,0,0,1,376.67,186.68Z" style="fill:#263238"></path><path d="M376.55,191.87a13.26,13.26,0,0,1-2.78-2.41,13.43,13.43,0,0,1-2.42-2.78,13.26,13.26,0,0,1,2.78,2.41A13.43,13.43,0,0,1,376.55,191.87Z" style="fill:#263238"></path><path d="M351.18,183.49c0,.68-.5,1.21-1.48,1.21a2.14,2.14,0,0,1-1.47-.53l.2-.33a1.83,1.83,0,0,0,1.27.47c.68,0,1.05-.31,1.05-.82s-.35-.81-1.1-.81h-.29v-.31l1.13-1.42H348.4v-.37H351v.3l-1.15,1.45C350.74,182.38,351.18,182.84,351.18,183.49Z" style="fill:#e0e0e0"></path><path d="M357.89,180.58v4.08h-.41V181.4l-1.61,2.74h-.2l-1.6-2.73v3.25h-.42v-4.08H354l1.77,3,1.75-3Z" style="fill:#e0e0e0"></path><path d="M362.62,183.57c0,.69-.51,1.09-1.53,1.09h-1.88v-4.08H361c.91,0,1.44.38,1.44,1a1,1,0,0,1-.63.93A1,1,0,0,1,362.62,183.57Zm-3-2.63v1.48h1.3c.66,0,1-.25,1-.74s-.37-.74-1-.74Zm2.55,2.6c0-.54-.39-.77-1.11-.77h-1.44v1.53h1.44C361.8,184.3,362.19,184.07,362.19,183.54Z" style="fill:#e0e0e0"></path><path d="M174.86,233.56H159.4a1.94,1.94,0,0,1-1.94-1.94V210.21a1.93,1.93,0,0,1,1.94-1.93h9.8l7.6,7.82v15.52A1.94,1.94,0,0,1,174.86,233.56Z" style="fill:#0F172A"></path><path d="M169.2,208.28v6a1.8,1.8,0,0,0,1.8,1.8h5.8Z" style="fill:#0F172A"></path><g style="opacity:0.2"><path d="M169.28,214.83a2,2,0,0,0,1.59,1.94l.19,0c.76.14,5.74,1,5.74.91V216.1H171S169.56,216.05,169.28,214.83Z"></path></g><g style="opacity:0.30000000000000004"><path d="M169.2,208.28v6a1.8,1.8,0,0,0,1.8,1.8h5.8Z" style="fill:#fff"></path></g><path d="M167.91,214.06a24.11,24.11,0,0,1-3.58.14,24.11,24.11,0,0,1-3.58-.14,22.59,22.59,0,0,1,3.58-.14A22.59,22.59,0,0,1,167.91,214.06Z" style="fill:#fafafa"></path><path d="M172.53,217.46c0,.08-2.64.14-5.89.14s-5.89-.06-5.89-.14,2.64-.14,5.89-.14S172.53,217.38,172.53,217.46Z" style="fill:#fafafa"></path><path d="M173.59,220.31c0,.07-2.87.14-6.42.14s-6.42-.07-6.42-.14,2.88-.14,6.42-.14S173.59,220.23,173.59,220.31Z" style="fill:#fafafa"></path><path d="M173.59,223c0,.08-2.87.14-6.42.14s-6.42-.06-6.42-.14,2.88-.14,6.42-.14S173.59,222.91,173.59,223Z" style="fill:#fafafa"></path><path d="M173.59,225.67c0,.08-2.87.14-6.42.14s-6.42-.06-6.42-.14,2.88-.14,6.42-.14S173.59,225.6,173.59,225.67Z" style="fill:#fafafa"></path><path d="M173.59,228.36c0,.08-2.87.14-6.42.14s-6.42-.06-6.42-.14,2.88-.14,6.42-.14S173.59,228.28,173.59,228.36Z" style="fill:#fafafa"></path><path d="M189.94,211a1.58,1.58,0,0,1,.87.22l-.27.72a1,1,0,0,0-.53-.17c-.39,0-.6.22-.6.66v.24h1.12v.76h-1.09v3.28h-.95v-3.28h-.67v-.76h.67v-.26A1.31,1.31,0,0,1,189.94,211Zm1.71.39a.58.58,0,0,1,.61-.57.57.57,0,0,1,.61.55.61.61,0,0,1-1.22,0Zm.13,1.25h1v4.07h-1Z" style="fill:#263238"></path><path d="M194,211h1v5.66h-1Z" style="fill:#263238"></path><path d="M200,214.94h-3.19a1.23,1.23,0,0,0,1.32,1,1.48,1.48,0,0,0,1.1-.44l.51.58a2,2,0,0,1-1.64.67,2.07,2.07,0,0,1-2.25-2.09,2,2,0,0,1,2.11-2.09,2,2,0,0,1,2.06,2.11C200,214.73,200,214.85,200,214.94Zm-3.2-.63h2.31a1.17,1.17,0,0,0-2.31,0Z" style="fill:#263238"></path><path d="M205,214.34v2.33h-1v-2.21c0-.72-.36-1.08-1-1.08a1.09,1.09,0,0,0-1.14,1.23v2.06h-1V212.6h.91v.53a1.74,1.74,0,0,1,1.4-.58A1.59,1.59,0,0,1,205,214.34Z" style="fill:#263238"></path><path d="M209.59,214.28v2.39h-.9v-.49a1.44,1.44,0,0,1-1.28.55c-.94,0-1.52-.51-1.52-1.22s.45-1.22,1.69-1.22h1v-.06c0-.56-.33-.88-1-.88a2,2,0,0,0-1.24.4l-.37-.69a2.83,2.83,0,0,1,1.72-.51C208.91,212.55,209.59,213.11,209.59,214.28Zm-1,1.12v-.47h-1c-.65,0-.82.24-.82.54s.29.56.77.56A1,1,0,0,0,208.63,215.4Z" style="fill:#263238"></path><path d="M217.62,214.34v2.33h-1v-2.21c0-.72-.33-1.08-.91-1.08s-1.07.42-1.07,1.23v2.06h-.95v-2.21c0-.72-.33-1.08-.91-1.08s-1.07.42-1.07,1.23v2.06h-.95V212.6h.91v.52a1.67,1.67,0,0,1,1.33-.57,1.53,1.53,0,0,1,1.38.68,1.89,1.89,0,0,1,1.52-.68A1.57,1.57,0,0,1,217.62,214.34Z" style="fill:#263238"></path><path d="M222.7,214.94h-3.19a1.23,1.23,0,0,0,1.32,1,1.48,1.48,0,0,0,1.1-.44l.52.58a2.29,2.29,0,0,1-3.9-1.42,2,2,0,0,1,2.11-2.09,2,2,0,0,1,2.06,2.11C222.72,214.73,222.71,214.85,222.7,214.94Zm-3.2-.63h2.31a1.1,1.1,0,0,0-1.15-1A1.12,1.12,0,0,0,219.5,214.31Z" style="fill:#263238"></path><path d="M223.32,216.09a.63.63,0,1,1,1.25,0,.63.63,0,1,1-1.25,0Z" style="fill:#263238"></path><path d="M224.24,218l.28-.71a.9.9,0,0,0,.55.16c.36,0,.55-.21.55-.65V212.6h1v4.15a1.32,1.32,0,0,1-1.42,1.46A1.56,1.56,0,0,1,224.24,218Zm1.25-6.62a.58.58,0,0,1,.61-.57.57.57,0,0,1,.61.55.59.59,0,0,1-.61.6A.58.58,0,0,1,225.49,211.35Z" style="fill:#263238"></path><path d="M232.16,214.64a2,2,0,0,1-2.07,2.09,1.7,1.7,0,0,1-1.31-.55v2h-.95V212.6h.91v.53a1.67,1.67,0,0,1,1.35-.58A2,2,0,0,1,232.16,214.64Zm-1,0a1.21,1.21,0,1,0-1.21,1.27A1.19,1.19,0,0,0,231.19,214.64Z" style="fill:#263238"></path><path d="M237.11,212.6v3.45a1.92,1.92,0,0,1-2.2,2.16,3.25,3.25,0,0,1-2-.58l.43-.72a2.45,2.45,0,0,0,1.5.49c.9,0,1.3-.41,1.3-1.24V216a1.83,1.83,0,0,1-1.37.54,2,2,0,1,1,0-3.94,1.77,1.77,0,0,1,1.41.59v-.54Zm-.94,1.91a1.24,1.24,0,1,0-1.23,1.17A1.15,1.15,0,0,0,236.17,214.51Z" style="fill:#263238"></path><path d="M188.4,220.92h.43v3.71h2.28V225H188.4Z" style="fill:#e0e0e0"></path><path d="M191.38,223.47a1.56,1.56,0,1,1,1.56,1.56A1.51,1.51,0,0,1,191.38,223.47Zm2.7,0a1.14,1.14,0,1,0-1.14,1.19A1.12,1.12,0,0,0,194.08,223.47Z" style="fill:#e0e0e0"></path><path d="M197.64,223.1V225h-.4v-.48a1.13,1.13,0,0,1-1.05.51c-.7,0-1.12-.36-1.12-.89s.3-.87,1.18-.87h1v-.19a.75.75,0,0,0-.86-.81,1.56,1.56,0,0,0-1,.36l-.19-.3a1.9,1.9,0,0,1,1.25-.42A1.09,1.09,0,0,1,197.64,223.1Zm-.42,1v-.5h-1c-.59,0-.78.23-.78.55s.28.57.77.57A1,1,0,0,0,197.22,224.08Z" style="fill:#e0e0e0"></path><path d="M201.57,220.68V225h-.4v-.6A1.32,1.32,0,0,1,200,225a1.56,1.56,0,0,1,0-3.12,1.35,1.35,0,0,1,1.17.61v-1.84Zm-.41,2.79a1.14,1.14,0,1,0-1.14,1.19A1.12,1.12,0,0,0,201.16,223.47Z" style="fill:#e0e0e0"></path><path d="M202.63,221a.29.29,0,0,1,.3-.29.28.28,0,0,1,.3.28.3.3,0,1,1-.6,0Zm.09,1h.41V225h-.41Z" style="fill:#e0e0e0"></path><path d="M207.11,223.22V225h-.42v-1.74a.85.85,0,0,0-.92-1,1,1,0,0,0-1.07,1.1V225h-.42v-3.06h.4v.56a1.3,1.3,0,0,1,1.17-.59A1.18,1.18,0,0,1,207.11,223.22Z" style="fill:#e0e0e0"></path><path d="M211.08,221.94v2.69a1.35,1.35,0,0,1-1.54,1.53,2.13,2.13,0,0,1-1.42-.47l.21-.32a1.77,1.77,0,0,0,1.2.42c.78,0,1.13-.35,1.13-1.11v-.39a1.37,1.37,0,0,1-1.19.6,1.47,1.47,0,0,1-1.54-1.5,1.46,1.46,0,0,1,1.54-1.48,1.39,1.39,0,0,1,1.21.61v-.58Zm-.4,1.45a1.17,1.17,0,1,0-1.17,1.13A1.1,1.1,0,0,0,210.68,223.39Z" style="fill:#e0e0e0"></path><path d="M213.49,224.71a.31.31,0,1,1,.62,0,.31.31,0,1,1-.62,0Z" style="fill:#e0e0e0"></path><path d="M214.72,224.71a.31.31,0,0,1,.31-.31.31.31,0,0,1,.32.31.32.32,0,0,1-.32.32A.31.31,0,0,1,214.72,224.71Z" style="fill:#e0e0e0"></path><path d="M216,224.71a.31.31,0,0,1,.62,0,.31.31,0,1,1-.62,0Z" style="fill:#e0e0e0"></path><path d="M365.8,231.66H187.91a1.66,1.66,0,0,1-1.66-1.66h0a1.66,1.66,0,0,1,1.66-1.67H365.8a1.66,1.66,0,0,1,1.66,1.67h0A1.66,1.66,0,0,1,365.8,231.66Z" style="fill:#e0e0e0"></path><path d="M291.85,231.66H187.91a1.66,1.66,0,0,1-1.66-1.66h0a1.66,1.66,0,0,1,1.66-1.67H291.85a1.66,1.66,0,0,1,1.66,1.67h0A1.66,1.66,0,0,1,291.85,231.66Z" style="fill:#0F172A"></path><path d="M376.67,227a13.14,13.14,0,0,1-2.42,2.78,12.57,12.57,0,0,1-2.78,2.41,13.55,13.55,0,0,1,2.41-2.78A13.17,13.17,0,0,1,376.67,227Z" style="fill:#263238"></path><path d="M376.55,232.21a12.57,12.57,0,0,1-2.78-2.41,13.14,13.14,0,0,1-2.42-2.78,13.26,13.26,0,0,1,2.78,2.41A13.43,13.43,0,0,1,376.55,232.21Z" style="fill:#263238"></path><path d="M351.27,224.63V225h-2.86v-.3L350.1,223c.46-.45.55-.73.55-1,0-.47-.33-.76-1-.76a1.39,1.39,0,0,0-1.11.46l-.3-.26a1.85,1.85,0,0,1,1.45-.58c.83,0,1.35.42,1.35,1.1a1.65,1.65,0,0,1-.67,1.27L349,224.63Z" style="fill:#e0e0e0"></path><path d="M351.76,223c0-1.3.69-2.07,1.63-2.07s1.63.77,1.63,2.07-.68,2.08-1.63,2.08S351.76,224.26,351.76,223Zm2.83,0c0-1.09-.49-1.69-1.2-1.69s-1.2.6-1.2,1.69.49,1.69,1.2,1.69S354.59,224.05,354.59,223Z" style="fill:#e0e0e0"></path><path d="M358.56,223.46l-.73.67V225h-.41v-4.32h.41v2.93l1.83-1.67h.52l-1.32,1.25L360.3,225h-.51Z" style="fill:#e0e0e0"></path><path d="M364,223.47A1.48,1.48,0,0,1,362.5,225a1.34,1.34,0,0,1-1.19-.63v.6h-.39v-4.32h.41v1.84a1.35,1.35,0,0,1,1.17-.61A1.48,1.48,0,0,1,364,223.47Zm-.41,0a1.14,1.14,0,1,0-1.14,1.19A1.12,1.12,0,0,0,363.61,223.47Z" style="fill:#e0e0e0"></path><path d="M174.86,274.45H159.4a1.94,1.94,0,0,1-1.94-1.94V251.1a1.94,1.94,0,0,1,1.94-1.93h9.8l7.6,7.83v15.51A1.94,1.94,0,0,1,174.86,274.45Z" style="fill:#0F172A"></path><path d="M169.2,249.17v6A1.8,1.8,0,0,0,171,257h5.8Z" style="fill:#0F172A"></path><g style="opacity:0.2"><path d="M169.28,255.72a2,2,0,0,0,1.59,1.94l.19,0c.76.13,5.74,1,5.74.9V257H171S169.56,257,169.28,255.72Z"></path></g><g style="opacity:0.30000000000000004"><path d="M169.2,249.17v6A1.8,1.8,0,0,0,171,257h5.8Z" style="fill:#fff"></path></g><path d="M167.91,255a22.59,22.59,0,0,1-3.58.14,22.59,22.59,0,0,1-3.58-.14,22.59,22.59,0,0,1,3.58-.14A22.59,22.59,0,0,1,167.91,255Z" style="fill:#fafafa"></path><path d="M172.53,258.35c0,.08-2.64.15-5.89.15s-5.89-.07-5.89-.15,2.64-.14,5.89-.14S172.53,258.28,172.53,258.35Z" style="fill:#fafafa"></path><path d="M173.59,261.2c0,.08-2.87.14-6.42.14s-6.42-.06-6.42-.14,2.88-.14,6.42-.14S173.59,261.12,173.59,261.2Z" style="fill:#fafafa"></path><path d="M173.59,263.88c0,.08-2.87.14-6.42.14s-6.42-.06-6.42-.14,2.88-.14,6.42-.14S173.59,263.81,173.59,263.88Z" style="fill:#fafafa"></path><path d="M173.59,266.57c0,.07-2.87.14-6.42.14s-6.42-.07-6.42-.14,2.88-.14,6.42-.14S173.59,266.49,173.59,266.57Z" style="fill:#fafafa"></path><path d="M173.59,269.25c0,.08-2.87.14-6.42.14s-6.42-.06-6.42-.14,2.88-.14,6.42-.14S173.59,269.17,173.59,269.25Z" style="fill:#fafafa"></path><path d="M189.94,251.85a1.58,1.58,0,0,1,.87.22l-.27.72a1,1,0,0,0-.53-.17c-.39,0-.6.22-.6.66v.24h1.12v.77h-1.09v3.28h-.95v-3.28h-.67v-.77h.67v-.26A1.31,1.31,0,0,1,189.94,251.85Zm1.71.4a.58.58,0,0,1,.61-.57.56.56,0,0,1,.61.55.61.61,0,0,1-1.22,0Zm.13,1.24h1v4.08h-1Z" style="fill:#263238"></path><path d="M194,251.91h1v5.66h-1Z" style="fill:#263238"></path><path d="M200,255.83h-3.19a1.23,1.23,0,0,0,1.32,1,1.45,1.45,0,0,0,1.1-.44l.51.59a2.29,2.29,0,0,1-3.89-1.43,2,2,0,0,1,2.11-2.08,2,2,0,0,1,2.06,2.1C200,255.63,200,255.74,200,255.83Zm-3.2-.63h2.31a1.11,1.11,0,0,0-1.15-1A1.13,1.13,0,0,0,196.81,255.2Z" style="fill:#263238"></path><path d="M205,255.23v2.34h-1v-2.22c0-.72-.36-1.07-1-1.07a1.08,1.08,0,0,0-1.14,1.23v2.06h-1v-4.08h.91V254a1.73,1.73,0,0,1,1.4-.57A1.58,1.58,0,0,1,205,255.23Z" style="fill:#263238"></path><path d="M209.59,255.18v2.39h-.9v-.5a1.44,1.44,0,0,1-1.28.55c-.94,0-1.52-.51-1.52-1.22s.45-1.21,1.69-1.21h1v-.06c0-.56-.33-.89-1-.89a2,2,0,0,0-1.24.4L206,254a2.82,2.82,0,0,1,1.72-.5C208.91,253.45,209.59,254,209.59,255.18Zm-1,1.11v-.47h-1c-.65,0-.82.24-.82.54s.29.57.77.57A1,1,0,0,0,208.63,256.29Z" style="fill:#263238"></path><path d="M217.62,255.23v2.34h-1v-2.22c0-.72-.33-1.07-.91-1.07s-1.07.41-1.07,1.22v2.07h-.95v-2.22c0-.72-.33-1.07-.91-1.07s-1.07.41-1.07,1.22v2.07h-.95v-4.08h.91V254a1.66,1.66,0,0,1,1.33-.56,1.53,1.53,0,0,1,1.38.68,1.89,1.89,0,0,1,1.52-.68A1.56,1.56,0,0,1,217.62,255.23Z" style="fill:#263238"></path><path d="M222.7,255.83h-3.19a1.23,1.23,0,0,0,1.32,1,1.45,1.45,0,0,0,1.1-.44l.52.59a2.09,2.09,0,0,1-1.65.66,2.07,2.07,0,0,1-2.25-2.09,2,2,0,0,1,2.11-2.08,2,2,0,0,1,2.06,2.1C222.72,255.63,222.71,255.74,222.7,255.83Zm-3.2-.63h2.31a1.1,1.1,0,0,0-1.15-1A1.13,1.13,0,0,0,219.5,255.2Z" style="fill:#263238"></path><path d="M223.32,257a.63.63,0,1,1,.62.63A.62.62,0,0,1,223.32,257Z" style="fill:#263238"></path><path d="M229.83,255.53a2,2,0,0,1-2.07,2.09,1.7,1.7,0,0,1-1.31-.55v2h-.95v-5.56h.91V254a1.67,1.67,0,0,1,1.35-.58A2,2,0,0,1,229.83,255.53Zm-1,0a1.21,1.21,0,1,0-1.21,1.27A1.19,1.19,0,0,0,228.86,255.53Z" style="fill:#263238"></path><path d="M234.75,255.23v2.34h-.95v-2.22c0-.72-.36-1.07-1-1.07a1.08,1.08,0,0,0-1.14,1.23v2.06h-.95v-4.08h.91V254a1.75,1.75,0,0,1,1.4-.57A1.58,1.58,0,0,1,234.75,255.23Z" style="fill:#263238"></path><path d="M240.05,253.49V257a1.92,1.92,0,0,1-2.2,2.15,3.25,3.25,0,0,1-2-.58l.43-.72a2.45,2.45,0,0,0,1.5.49c.9,0,1.3-.41,1.3-1.23v-.22a1.79,1.79,0,0,1-1.37.54,2,2,0,1,1,0-3.93,1.76,1.76,0,0,1,1.41.58v-.54Zm-.94,1.92a1.24,1.24,0,1,0-1.23,1.16A1.15,1.15,0,0,0,239.11,255.41Z" style="fill:#263238"></path><path d="M188.4,261.81h.43v3.71h2.28v.37H188.4Z" style="fill:#e0e0e0"></path><path d="M191.38,264.36a1.56,1.56,0,1,1,1.56,1.56A1.51,1.51,0,0,1,191.38,264.36Zm2.7,0a1.14,1.14,0,1,0-2.28,0,1.14,1.14,0,1,0,2.28,0Z" style="fill:#e0e0e0"></path><path d="M197.64,264v1.9h-.4v-.47a1.15,1.15,0,0,1-1.05.5c-.7,0-1.12-.36-1.12-.89s.3-.87,1.18-.87h1V264c0-.53-.29-.81-.86-.81a1.56,1.56,0,0,0-1,.36l-.19-.31a2,2,0,0,1,1.25-.41A1.08,1.08,0,0,1,197.64,264Zm-.42,1v-.5h-1c-.59,0-.78.23-.78.55s.28.58.77.58A1,1,0,0,0,197.22,265Z" style="fill:#e0e0e0"></path><path d="M201.57,261.57v4.32h-.4v-.6a1.32,1.32,0,0,1-1.18.63,1.56,1.56,0,0,1,0-3.11,1.34,1.34,0,0,1,1.17.6v-1.84Zm-.41,2.79a1.14,1.14,0,1,0-1.14,1.2A1.12,1.12,0,0,0,201.16,264.36Z" style="fill:#e0e0e0"></path><path d="M202.63,261.86a.3.3,0,0,1,.6,0,.3.3,0,1,1-.6,0Zm.09,1h.41v3.06h-.41Z" style="fill:#e0e0e0"></path><path d="M207.11,264.12v1.77h-.42v-1.73a.86.86,0,0,0-.92-1,1,1,0,0,0-1.07,1.11v1.6h-.42v-3.06h.4v.56a1.3,1.3,0,0,1,1.17-.58A1.18,1.18,0,0,1,207.11,264.12Z" style="fill:#e0e0e0"></path><path d="M211.08,262.83v2.69a1.34,1.34,0,0,1-1.54,1.53,2.08,2.08,0,0,1-1.42-.47l.21-.31a1.82,1.82,0,0,0,1.2.42c.78,0,1.13-.36,1.13-1.12v-.39a1.37,1.37,0,0,1-1.19.6,1.49,1.49,0,1,1,0-3,1.37,1.37,0,0,1,1.21.61v-.59Zm-.4,1.46a1.17,1.17,0,1,0-1.17,1.12A1.1,1.1,0,0,0,210.68,264.29Z" style="fill:#e0e0e0"></path><path d="M213.49,265.6a.31.31,0,0,1,.62,0,.31.31,0,1,1-.62,0Z" style="fill:#e0e0e0"></path><path d="M214.72,265.6a.31.31,0,0,1,.31-.31.31.31,0,0,1,.32.31.32.32,0,0,1-.32.32A.31.31,0,0,1,214.72,265.6Z" style="fill:#e0e0e0"></path><path d="M216,265.6a.31.31,0,0,1,.62,0,.31.31,0,1,1-.62,0Z" style="fill:#e0e0e0"></path><path d="M365.8,272.55H187.91a1.66,1.66,0,0,1-1.66-1.66h0a1.66,1.66,0,0,1,1.66-1.66H365.8a1.66,1.66,0,0,1,1.66,1.66h0A1.66,1.66,0,0,1,365.8,272.55Z" style="fill:#e0e0e0"></path><path d="M227.36,272.55H187.91a1.66,1.66,0,0,1-1.66-1.66h0a1.66,1.66,0,0,1,1.66-1.66h39.45a1.66,1.66,0,0,1,1.66,1.66h0A1.66,1.66,0,0,1,227.36,272.55Z" style="fill:#0F172A"></path><path d="M376.67,267.91a26.68,26.68,0,0,1-5.2,5.2,13.26,13.26,0,0,1,2.41-2.78A13,13,0,0,1,376.67,267.91Z" style="fill:#263238"></path><path d="M376.55,273.11a26.68,26.68,0,0,1-5.2-5.2,26.68,26.68,0,0,1,5.2,5.2Z" style="fill:#263238"></path><path d="M351.18,264.72c0,.69-.5,1.21-1.48,1.21a2.13,2.13,0,0,1-1.47-.52l.2-.34a1.79,1.79,0,0,0,1.27.47c.68,0,1.05-.31,1.05-.82s-.35-.81-1.1-.81h-.29v-.31l1.13-1.41H348.4v-.38H351v.3l-1.15,1.45C350.74,263.61,351.18,264.07,351.18,264.72Z" style="fill:#e0e0e0"></path><path d="M354.52,265.52v.37h-2.86v-.29l1.7-1.66c.46-.46.54-.73.54-1,0-.48-.33-.77-.95-.77a1.36,1.36,0,0,0-1.11.46l-.3-.26a1.83,1.83,0,0,1,1.44-.58c.83,0,1.36.42,1.36,1.1a1.72,1.72,0,0,1-.67,1.28l-1.39,1.36Z" style="fill:#e0e0e0"></path><path d="M361.17,261.81v4.08h-.42v-3.26l-1.6,2.75H359l-1.61-2.73v3.24h-.41v-4.08h.36l1.77,3,1.75-3Z" style="fill:#e0e0e0"></path><path d="M365.9,264.8c0,.7-.51,1.09-1.53,1.09h-1.88v-4.08h1.76c.91,0,1.43.39,1.43,1.05a1,1,0,0,1-.62.93A1,1,0,0,1,365.9,264.8Zm-3-2.63v1.48h1.3c.65,0,1-.25,1-.74s-.38-.74-1-.74Zm2.55,2.6c0-.53-.39-.76-1.11-.76h-1.44v1.53h1.44C365.08,265.54,365.47,265.31,365.47,264.77Z" style="fill:#e0e0e0"></path><path d="M174.86,315.34H159.4a1.94,1.94,0,0,1-1.94-1.93V292a1.94,1.94,0,0,1,1.94-1.94h9.8l7.6,7.83v15.52A1.94,1.94,0,0,1,174.86,315.34Z" style="fill:#0F172A"></path><path d="M169.2,290.06v6a1.81,1.81,0,0,0,1.8,1.8h5.8Z" style="fill:#0F172A"></path><g style="opacity:0.2"><path d="M169.28,296.62a2,2,0,0,0,1.59,1.94l.19,0c.76.14,5.74,1,5.74.91v-1.62H171S169.56,297.84,169.28,296.62Z"></path></g><g style="opacity:0.30000000000000004"><path d="M169.2,290.06v6a1.81,1.81,0,0,0,1.8,1.8h5.8Z" style="fill:#fff"></path></g><path d="M167.91,295.84a22.59,22.59,0,0,1-3.58.14,22.59,22.59,0,0,1-3.58-.14,22.59,22.59,0,0,1,3.58-.14A22.59,22.59,0,0,1,167.91,295.84Z" style="fill:#fafafa"></path><path d="M172.53,299.25c0,.08-2.64.14-5.89.14s-5.89-.06-5.89-.14,2.64-.14,5.89-.14S172.53,299.17,172.53,299.25Z" style="fill:#fafafa"></path><path d="M173.59,302.09c0,.08-2.87.14-6.42.14s-6.42-.06-6.42-.14,2.88-.14,6.42-.14S173.59,302,173.59,302.09Z" style="fill:#fafafa"></path><path d="M173.59,304.78c0,.07-2.87.14-6.42.14s-6.42-.07-6.42-.14,2.88-.14,6.42-.14S173.59,304.7,173.59,304.78Z" style="fill:#fafafa"></path><path d="M173.59,307.46c0,.08-2.87.14-6.42.14s-6.42-.06-6.42-.14,2.88-.14,6.42-.14S173.59,307.38,173.59,307.46Z" style="fill:#fafafa"></path><path d="M173.59,310.14c0,.08-2.87.14-6.42.14s-6.42-.06-6.42-.14,2.88-.14,6.42-.14S173.59,310.07,173.59,310.14Z" style="fill:#fafafa"></path><path d="M189.94,292.74a1.51,1.51,0,0,1,.87.23l-.27.71a1,1,0,0,0-.53-.16c-.39,0-.6.22-.6.65v.25h1.12v.76h-1.09v3.28h-.95v-3.28h-.67v-.76h.67v-.26A1.32,1.32,0,0,1,189.94,292.74Zm1.71.4a.58.58,0,0,1,.61-.57.57.57,0,0,1,.61.55.61.61,0,0,1-1.22,0Zm.13,1.24h1v4.08h-1Z" style="fill:#263238"></path><path d="M194,292.8h1v5.66h-1Z" style="fill:#263238"></path><path d="M200,296.73h-3.19a1.23,1.23,0,0,0,1.32,1,1.45,1.45,0,0,0,1.1-.44l.51.59a2.29,2.29,0,0,1-3.89-1.43,2,2,0,0,1,2.11-2.08,2,2,0,0,1,2.06,2.11C200,296.52,200,296.64,200,296.73Zm-3.2-.64h2.31a1.17,1.17,0,0,0-2.31,0Z" style="fill:#263238"></path><path d="M205,296.12v2.34h-1v-2.21c0-.73-.36-1.08-1-1.08a1.08,1.08,0,0,0-1.14,1.23v2.06h-1v-4.08h.91v.53a1.76,1.76,0,0,1,1.4-.57A1.59,1.59,0,0,1,205,296.12Z" style="fill:#263238"></path><path d="M209.59,296.07v2.39h-.9V298a1.44,1.44,0,0,1-1.28.55c-.94,0-1.52-.51-1.52-1.22s.45-1.21,1.69-1.21h1V296c0-.56-.33-.89-1-.89a2,2,0,0,0-1.24.41l-.37-.7a2.89,2.89,0,0,1,1.72-.5C208.91,294.34,209.59,294.9,209.59,296.07Zm-1,1.11v-.47h-1c-.65,0-.82.25-.82.54s.29.57.77.57A1,1,0,0,0,208.63,297.18Z" style="fill:#263238"></path><path d="M217.62,296.12v2.34h-1v-2.21c0-.73-.33-1.08-.91-1.08s-1.07.41-1.07,1.22v2.07h-.95v-2.21c0-.73-.33-1.08-.91-1.08s-1.07.41-1.07,1.22v2.07h-.95v-4.08h.91v.52a1.7,1.7,0,0,1,1.33-.56,1.53,1.53,0,0,1,1.38.68,1.89,1.89,0,0,1,1.52-.68A1.56,1.56,0,0,1,217.62,296.12Z" style="fill:#263238"></path><path d="M222.7,296.73h-3.19a1.23,1.23,0,0,0,1.32,1,1.45,1.45,0,0,0,1.1-.44l.52.59a2.09,2.09,0,0,1-1.65.66,2.07,2.07,0,0,1-2.25-2.09,2,2,0,0,1,2.11-2.08,2,2,0,0,1,2.06,2.11C222.72,296.52,222.71,296.64,222.7,296.73Zm-3.2-.64h2.31a1.11,1.11,0,0,0-1.15-1A1.13,1.13,0,0,0,219.5,296.09Z" style="fill:#263238"></path><path d="M223.32,297.88a.63.63,0,1,1,1.25,0,.63.63,0,1,1-1.25,0Z" style="fill:#263238"></path><path d="M229.83,296.42a2,2,0,0,1-2.07,2.09,1.67,1.67,0,0,1-1.31-.55v2h-.95v-5.56h.91v.54a1.67,1.67,0,0,1,1.35-.58A2,2,0,0,1,229.83,296.42Zm-1,0a1.21,1.21,0,1,0-2.42,0,1.21,1.21,0,1,0,2.42,0Z" style="fill:#263238"></path><path d="M234.73,292.8v5.66h-.92v-.53a1.67,1.67,0,0,1-1.35.58,2.09,2.09,0,0,1,0-4.17,1.66,1.66,0,0,1,1.32.55V292.8Zm-.94,3.62a1.22,1.22,0,1,0-1.21,1.28A1.19,1.19,0,0,0,233.79,296.42Z" style="fill:#263238"></path><path d="M237,294.17v.25h1.12v.76h-1.09v3.28h-1v-3.28h-.67v-.76h.67v-.26a1.33,1.33,0,0,1,1.46-1.42,1.45,1.45,0,0,1,.86.23l-.26.71a1,1,0,0,0-.53-.16C237.24,293.52,237,293.74,237,294.17Z" style="fill:#263238"></path><path d="M188.4,302.71h.43v3.7h2.28v.38H188.4Z" style="fill:#e0e0e0"></path><path d="M191.38,305.25a1.56,1.56,0,1,1,1.56,1.57A1.52,1.52,0,0,1,191.38,305.25Zm2.7,0a1.14,1.14,0,1,0-1.14,1.2A1.12,1.12,0,0,0,194.08,305.25Z" style="fill:#e0e0e0"></path><path d="M197.64,304.89v1.9h-.4v-.48a1.15,1.15,0,0,1-1.05.51c-.7,0-1.12-.37-1.12-.9s.3-.86,1.18-.86h1v-.19c0-.53-.29-.81-.86-.81a1.56,1.56,0,0,0-1,.36l-.19-.31a2,2,0,0,1,1.25-.41A1.09,1.09,0,0,1,197.64,304.89Zm-.42,1v-.5h-1c-.59,0-.78.23-.78.54s.28.58.77.58A1,1,0,0,0,197.22,305.87Z" style="fill:#e0e0e0"></path><path d="M201.57,302.46v4.33h-.4v-.61a1.33,1.33,0,0,1-1.18.64,1.56,1.56,0,0,1,0-3.12,1.36,1.36,0,0,1,1.17.6v-1.84Zm-.41,2.79a1.14,1.14,0,1,0-1.14,1.2A1.12,1.12,0,0,0,201.16,305.25Z" style="fill:#e0e0e0"></path><path d="M202.63,302.75a.3.3,0,0,1,.3-.29.3.3,0,1,1-.3.29Zm.09,1h.41v3.07h-.41Z" style="fill:#e0e0e0"></path><path d="M207.11,305v1.78h-.42v-1.74a.86.86,0,0,0-.92-1,1,1,0,0,0-1.07,1.11v1.61h-.42v-3.07h.4v.57a1.28,1.28,0,0,1,1.17-.59A1.18,1.18,0,0,1,207.11,305Z" style="fill:#e0e0e0"></path><path d="M211.08,303.72v2.69a1.35,1.35,0,0,1-1.54,1.54,2.08,2.08,0,0,1-1.42-.48l.21-.31a1.82,1.82,0,0,0,1.2.42c.78,0,1.13-.36,1.13-1.11v-.39a1.36,1.36,0,0,1-1.19.59,1.49,1.49,0,1,1,0-3,1.39,1.39,0,0,1,1.21.61v-.59Zm-.4,1.46a1.17,1.17,0,1,0-1.17,1.12A1.1,1.1,0,0,0,210.68,305.18Z" style="fill:#e0e0e0"></path><path d="M213.49,306.5a.31.31,0,1,1,.31.32A.31.31,0,0,1,213.49,306.5Z" style="fill:#e0e0e0"></path><path d="M214.72,306.5a.31.31,0,0,1,.31-.32.32.32,0,0,1,0,.64A.31.31,0,0,1,214.72,306.5Z" style="fill:#e0e0e0"></path><path d="M216,306.5a.31.31,0,1,1,.31.32A.31.31,0,0,1,216,306.5Z" style="fill:#e0e0e0"></path><path d="M365.8,313.44H187.91a1.66,1.66,0,0,1-1.66-1.66h0a1.66,1.66,0,0,1,1.66-1.66H365.8a1.66,1.66,0,0,1,1.66,1.66h0A1.66,1.66,0,0,1,365.8,313.44Z" style="fill:#e0e0e0"></path><path d="M340.52,313.44H187.91a1.66,1.66,0,0,1-1.66-1.66h0a1.66,1.66,0,0,1,1.66-1.66H340.52a1.66,1.66,0,0,1,1.66,1.66h0A1.66,1.66,0,0,1,340.52,313.44Z" style="fill:#0F172A"></path><path d="M376.67,308.8a13,13,0,0,1-2.42,2.79,13.26,13.26,0,0,1-2.78,2.41,13.26,13.26,0,0,1,2.41-2.78A13,13,0,0,1,376.67,308.8Z" style="fill:#263238"></path><path d="M376.55,314a13.26,13.26,0,0,1-2.78-2.41,13,13,0,0,1-2.42-2.79,26.68,26.68,0,0,1,5.2,5.2Z" style="fill:#263238"></path><path d="M349.61,302.71v4.08h-.42v-3.71h-1v-.37Z" style="fill:#e0e0e0"></path><path d="M353.35,305.59c0,.69-.48,1.23-1.48,1.23a2.09,2.09,0,0,1-1.46-.52l.2-.34a1.75,1.75,0,0,0,1.26.48c.69,0,1.06-.34,1.06-.84s-.33-.85-1.37-.85h-.87l.21-2h2.24v.37h-1.87l-.14,1.3h.53C352.89,304.38,353.35,304.86,353.35,305.59Z" style="fill:#e0e0e0"></path><path d="M360,302.71v4.08h-.41v-3.27l-1.6,2.75h-.21l-1.6-2.73v3.25h-.42v-4.08h.36l1.77,3,1.76-3Z" style="fill:#e0e0e0"></path><path d="M364.74,305.7c0,.69-.52,1.09-1.54,1.09h-1.87v-4.08h1.76c.91,0,1.43.38,1.43,1.05a.94.94,0,0,1-.62.92A1,1,0,0,1,364.74,305.7Zm-3-2.64v1.48h1.3c.65,0,1-.25,1-.74s-.38-.74-1-.74Zm2.54,2.6c0-.53-.39-.76-1.1-.76h-1.44v1.53h1.44C363.91,306.43,364.3,306.2,364.3,305.66Z" style="fill:#e0e0e0"></path><path d="M150.05,124.77v-3.35h.85v3.31c0,1.31.59,1.89,1.65,1.89s1.67-.58,1.67-1.89v-3.31H155v3.35a2.49,2.49,0,1,1-5,0Z" style="fill:#263238"></path><path d="M161.26,125.08a2.17,2.17,0,0,1-2.26,2.28,1.9,1.9,0,0,1-1.55-.73v2.31h-.81v-6.09h.77v.71a1.9,1.9,0,0,1,1.59-.75A2.17,2.17,0,0,1,161.26,125.08Zm-.82,0a1.5,1.5,0,1,0-1.5,1.57A1.48,1.48,0,0,0,160.44,125.08Z" style="fill:#263238"></path><path d="M162.38,121.07h.8v6.24h-.8Z" style="fill:#263238"></path><path d="M164.31,125.08a2.32,2.32,0,1,1,2.32,2.28A2.21,2.21,0,0,1,164.31,125.08Zm3.82,0a1.5,1.5,0,1,0-1.5,1.57A1.47,1.47,0,0,0,168.13,125.08Z" style="fill:#263238"></path><path d="M173.55,124.61v2.7h-.76v-.59a1.68,1.68,0,0,1-1.47.64c-1,0-1.64-.54-1.64-1.32s.46-1.3,1.79-1.3h1.27v-.16c0-.68-.39-1.08-1.19-1.08a2.26,2.26,0,0,0-1.41.48l-.34-.6a3,3,0,0,1,1.84-.57C172.86,122.81,173.55,123.4,173.55,124.61Zm-.81,1.33v-.62H171.5c-.8,0-1,.31-1,.69s.37.72,1,.72A1.28,1.28,0,0,0,172.74,125.94Z" style="fill:#263238"></path><path d="M179.28,121.07v6.24h-.77v-.71a1.92,1.92,0,0,1-1.59.76,2.28,2.28,0,0,1,0-4.55,1.88,1.88,0,0,1,1.55.71v-2.45Zm-.8,4a1.5,1.5,0,1,0-1.5,1.57A1.47,1.47,0,0,0,178.48,125.08Z" style="fill:#263238"></path><path d="M184.66,121a1.48,1.48,0,0,1,.91.26l-.24.61a1,1,0,0,0-.63-.21c-.47,0-.72.27-.72.78v.39h1.3v.66H184v3.8h-.81v-3.8h-.76v-.66h.76v-.4A1.34,1.34,0,0,1,184.66,121Zm1.91.45a.54.54,0,0,1,.55-.53.53.53,0,1,1,0,1A.53.53,0,0,1,186.57,121.47Zm.14,1.38h.81v4.46h-.81Z" style="fill:#263238"></path><path d="M189.06,121.07h.81v6.24h-.81Z" style="fill:#263238"></path><path d="M195.42,125.35H191.8a1.51,1.51,0,0,0,1.62,1.3,1.65,1.65,0,0,0,1.28-.54l.45.52a2.42,2.42,0,0,1-4.15-1.55,2.18,2.18,0,0,1,2.23-2.27,2.15,2.15,0,0,1,2.21,2.29A2.29,2.29,0,0,1,195.42,125.35Zm-3.62-.58h2.86a1.44,1.44,0,0,0-2.86,0Z" style="fill:#263238"></path><path d="M196,126.83l.34-.63a2.93,2.93,0,0,0,1.56.46c.75,0,1.06-.23,1.06-.61,0-1-2.81-.13-2.81-1.91,0-.79.71-1.33,1.85-1.33a3.3,3.3,0,0,1,1.63.4l-.35.64a2.32,2.32,0,0,0-1.28-.35c-.71,0-1.06.26-1.06.61,0,1,2.83.19,2.83,1.93,0,.8-.74,1.32-1.93,1.32A3.17,3.17,0,0,1,196,126.83Z" style="fill:#263238"></path><path d="M403.94,140.34c0,.15-61.08.27-136.4.27s-136.4-.12-136.4-.27,61.06-.26,136.4-.26S403.94,140.2,403.94,140.34Z" style="fill:#263238"></path></g><g id="freepik--Cloud--inject-61"><path d="M271.32,464.75H32.64s-2.81-56.16,46.8-59.9c0,0,8.22-47.49,63.64-47.74,66.46-.29,67.28,57.55,67.28,57.55s54.41-5.13,61,50.09" style="fill:#f5f5f5"></path><path d="M271.32,464.75s0-.13-.08-.4-.11-.67-.2-1.19-.18-1.18-.31-2a25.37,25.37,0,0,0-.5-2.68c-.22-1-.47-2.13-.75-3.37s-.74-2.54-1.16-4-1.06-2.91-1.66-4.51l-1.1-2.41c-.19-.41-.39-.83-.58-1.25l-.69-1.25c-.48-.83-.9-1.73-1.47-2.57l-1.7-2.6-2-2.58c-.7-.86-1.49-1.68-2.25-2.55a47.59,47.59,0,0,0-11.82-9.11,58.28,58.28,0,0,0-15.91-5.92A69.71,69.71,0,0,0,220,415a62.08,62.08,0,0,0-9.66-.14h-.23v-.23a56.81,56.81,0,0,0-1.39-10,66.38,66.38,0,0,0-3.06-10A57.89,57.89,0,0,0,194,376a54.17,54.17,0,0,0-8.78-7.49c-.8-.57-1.65-1.05-2.48-1.58l-1.26-.77-1.31-.69c-.88-.45-1.75-.94-2.65-1.36L174.78,363c-.91-.43-1.87-.73-2.82-1.07s-1.88-.71-2.86-1c-1.95-.52-3.89-1.17-5.91-1.52l-3-.63-3.06-.44c-2-.35-4.11-.49-6.18-.65a110.69,110.69,0,0,0-12.87-.13l-3.17.27-1.57.14-1.57.22-3.11.46-3.06.64A64.09,64.09,0,0,0,113.88,363a60.12,60.12,0,0,0-10.46,5.84A58.18,58.18,0,0,0,87.78,385.4a63.65,63.65,0,0,0-5,9.61,53.61,53.61,0,0,0-3.14,9.88l0,.17h-.17a52.87,52.87,0,0,0-17.62,4.26,41.85,41.85,0,0,0-13.37,9.33,49.3,49.3,0,0,0-8.29,11.74,61.54,61.54,0,0,0-4.44,11.4,81.7,81.7,0,0,0-2.91,16.89c-.13,2-.17,3.49-.18,4.51s0,1.55,0,1.55,0-.52-.07-1.55,0-2.54.12-4.52a80.64,80.64,0,0,1,2.79-16.95,62.38,62.38,0,0,1,4.41-11.47A49.79,49.79,0,0,1,48.2,418.4,42.39,42.39,0,0,1,61.67,409a53.18,53.18,0,0,1,17.75-4.33l-.2.18a54.08,54.08,0,0,1,3.14-10,65.12,65.12,0,0,1,5-9.69,58.55,58.55,0,0,1,15.75-16.7,61.2,61.2,0,0,1,10.55-5.9,64.85,64.85,0,0,1,11.81-3.79l3.08-.64,3.13-.46,1.58-.23,1.58-.13,3.19-.28a111.92,111.92,0,0,1,12.94.13c2.08.16,4.16.31,6.21.65l3.08.45,3,.63c2,.36,4,1,5.94,1.53,1,.28,1.93.66,2.89,1s1.92.65,2.83,1.08l2.77,1.21c.91.42,1.78.92,2.67,1.37l1.32.69,1.27.79c.84.53,1.7,1,2.51,1.58a55.28,55.28,0,0,1,8.86,7.58,58.26,58.26,0,0,1,11.76,18.8,67.42,67.42,0,0,1,3.08,10.12,58.35,58.35,0,0,1,1.38,10.05l-.25-.22a61.63,61.63,0,0,1,9.73.17,69,69,0,0,1,9.18,1.43,58.66,58.66,0,0,1,16,6,47.79,47.79,0,0,1,11.87,9.21c.77.88,1.56,1.71,2.25,2.58l2,2.61c.58.89,1.14,1.77,1.7,2.62s1,1.75,1.46,2.59l.68,1.25.58,1.26,1.09,2.43c.6,1.61,1.18,3.11,1.64,4.54l1.14,4c.26,1.24.5,2.37.72,3.38s.36,1.91.47,2.69.2,1.43.27,2,.13.92.17,1.2S271.32,464.75,271.32,464.75Z" style="fill:#263238"></path><polygon points="140.18 303.09 140.18 303.09 140.18 303.09 140.18 303.09 95.53 343.55 122.49 343.55 122.49 400.8 139.17 400.8 141.19 400.8 157.87 400.8 157.87 343.55 184.83 343.55 140.18 303.09" style="fill:#0F172A"></polygon><path d="M108.5,381.25c15.69-3.95,25.88.48,33.13,10.63,6.21-10.68,20.53-13.61,32-9l7.21,27.32-43.92,5.75-36.71-6.73Z" style="fill:#f5f5f5"></path><path d="M170.15,382c0,.05-.87-.3-2.46-.73a21.19,21.19,0,0,0-6.91-.61,24.18,24.18,0,0,0-4.75.8,25,25,0,0,0-5.11,2.12,21.54,21.54,0,0,0-8.82,8.94l-.21.42-.25-.41-.92-1.49a23.45,23.45,0,0,0-4.6-5.14,25.68,25.68,0,0,0-5.44-3.44,26.23,26.23,0,0,0-10.56-2.55,24.28,24.28,0,0,0-7.32.87c-1.67.51-2.57.88-2.59.83a3,3,0,0,1,.64-.3,18.16,18.16,0,0,1,1.9-.72,23,23,0,0,1,7.38-1,26.5,26.5,0,0,1,16.32,6,24,24,0,0,1,4.71,5.24l.94,1.53h-.46a21.74,21.74,0,0,1,9.05-9.12,23.19,23.19,0,0,1,10.07-2.87,20.58,20.58,0,0,1,7,.78,13.73,13.73,0,0,1,1.79.65A3,3,0,0,1,170.15,382Z" style="fill:#263238"></path></g></svg>